<!-- sample rectangle -->
<svg width="512" height="512" xmlns="http://www.w3.org/2000/svg" viewBox="0 0 16 16">
<path d="M9.692 9.133a.202.202 0 01-.1-.143.202.202 0 01.046-.169l.925-1.084a4.035 4.035 0 00.967-2.619v-.353a4.044 4.044 0 00-1.274-2.94A4.011 4.011 0 007.233.744C5.124.881 3.472 2.7 3.472 4.886v.232c0 .96.343 1.89.966 2.618l.925 1.085a.203.203 0 01.047.169.202.202 0 01-.1.143l-2.268 1.304a4.04 4.04 0 00-2.041 3.505V15h1v-1.058c0-1.088.588-2.098 1.537-2.637L5.808 10a1.205 1.205 0 00.316-1.828l-.926-1.085a3.028 3.028 0 01-.726-1.969v-.232c0-1.66 1.241-3.041 2.826-3.144a2.987 2.987 0 012.274.812c.618.579.958 1.364.958 2.21v.354c0 .722-.258 1.421-.728 1.969l-.925 1.085A1.205 1.205 0 009.194 10l.341.196c.284-.248.6-.459.954-.605l-.797-.458zM13 6.334v4.665a2.156 2.156 0 00-1.176-.351c-1.2 0-2.176.976-2.176 2.176S10.625 15 11.824 15 14 14.024 14 12.824V8.065l1.076.622.5-.866L13 6.334zM11.824 14a1.177 1.177 0 01-1.176-1.176A1.177 1.177 0 1111.824 14z"/>,
</svg>